<svg width="18" height="19" viewBox="0 0 18 19" fill="none" xmlns="http://www.w3.org/2000/svg">
<path d="M9 0.5L9.44871 6.09172L11.3294 0.806667L10.3155 6.32398L13.5 1.70577L11.0927 6.77269L15.364 3.13604L11.7273 7.40726L16.7942 5L12.176 8.18445L17.6933 7.17063L12.4083 9.05129L18 9.5L12.4083 9.94871L17.6933 11.8294L12.176 10.8155L16.7942 14L11.7273 11.5927L15.364 15.864L11.0927 12.2273L13.5 17.2942L10.3155 12.676L11.3294 18.1933L9.44871 12.9083L9 18.5L8.55129 12.9083L6.67063 18.1933L7.68445 12.676L4.5 17.2942L6.90726 12.2273L2.63604 15.864L6.27269 11.5927L1.20577 14L5.82398 10.8155L0.306667 11.8294L5.59172 9.94871L0 9.5L5.59172 9.05129L0.306667 7.17063L5.82398 8.18445L1.20577 5L6.27269 7.40726L2.63604 3.13604L6.90726 6.77269L4.5 1.70577L7.68445 6.32398L6.67063 0.806667L8.55129 6.09172L9 0.5Z" fill="black"/>
</svg>
