<svg width="443" height="406" viewBox="0 0 443 406" fill="none" xmlns="http://www.w3.org/2000/svg">
<path d="M221.5 0.413574C162.875 0.473629 106.671 21.8368 65.2165 59.816C23.7626 97.7953 0.444944 149.289 0.379395 203C0.47762 256.701 23.8057 308.178 65.2526 346.15C106.7 384.123 162.885 405.496 221.5 405.586C280.145 405.586 336.388 384.242 377.856 346.25C419.324 308.258 442.621 256.729 442.621 203C442.621 149.271 419.324 97.742 377.856 59.7497C336.388 21.7574 280.145 0.413574 221.5 0.413574ZM355.995 319.9C343.576 296.951 324.404 277.639 300.643 264.141C276.882 250.644 249.476 243.499 221.518 243.512C193.56 243.526 166.163 250.697 142.417 264.218C118.671 277.738 99.5216 297.069 87.1295 320.03C54.066 288.613 35.6427 246.642 35.7587 203C35.7587 157.867 55.3278 114.583 90.1611 82.6697C124.994 50.7562 172.238 32.8274 221.5 32.8274C270.762 32.8274 318.006 50.7562 352.839 82.6697C387.672 114.583 407.241 157.867 407.241 203C407.352 246.581 388.977 288.496 355.995 319.9ZM221.5 81.4481C205.756 81.4481 190.366 85.7254 177.275 93.7392C164.184 101.753 153.981 113.143 147.956 126.47C141.931 139.796 140.355 154.46 143.426 168.607C146.498 182.754 154.079 195.75 165.212 205.949C176.345 216.149 190.529 223.095 205.97 225.909C221.412 228.723 237.417 227.279 251.963 221.759C266.509 216.239 278.941 206.891 287.688 194.897C296.435 182.904 301.104 168.803 301.104 154.379C301.104 144.802 299.045 135.318 295.044 126.47C291.044 117.621 285.18 109.581 277.788 102.809C270.396 96.0368 261.621 90.6647 251.963 86.9996C242.305 83.3345 231.954 81.4481 221.5 81.4481Z" fill="white"/>
</svg>
